<svg width="640" height="640" viewBox="0 0 640 640" fill="none" xmlns="http://www.w3.org/2000/svg">
  <rect width="640" height="640" rx="320" fill="#F8FAFC"/>
  <circle cx="320" cy="260" r="118" fill="#DDE7F1"/>
  <path d="M128 548C156 442 229 392 320 392C411 392 484 442 512 548C459 590 395 612 320 612C245 612 181 590 128 548Z" fill="#0F766E"/>
  <path d="M236 333L285 199H357L405 333H351L343 306H299L291 333H236ZM311 267H331L321 231L311 267Z" fill="#0F172A"/>
  <path d="M424 333V199H476L512 278L548 199H600V333H552V273L528 333H496L472 273V333H424Z" fill="#0F172A"/>
</svg>
